<?xml version="1.0" encoding="utf-8"?>
<!-- Generator: Adobe Illustrator 16.0.0, SVG Export Plug-In . SVG Version: 6.00 Build 0)  -->
<!DOCTYPE svg PUBLIC "-//W3C//DTD SVG 1.1//EN" "http://www.w3.org/Graphics/SVG/1.1/DTD/svg11.dtd">
<svg version="1.1" id="Warstwa_2" xmlns="http://www.w3.org/2000/svg" xmlns:xlink="http://www.w3.org/1999/xlink" x="0px" y="0px"
	 width="141.732px" height="59.737px" viewBox="0 0 141.732 59.737" enable-background="new 0 0 141.732 59.737"
	 xml:space="preserve">
<g>
	<g>
		<circle fill="#201D59" cx="29.867" cy="29.868" r="7.528"/>
		<g>
			<path fill="#3D85C6" d="M51.021,26.989c-1.654,0-3.002-1.344-3.002-3.001c0-1.66,1.348-3.006,3.002-3.006
				c1.66,0,3.001,1.346,3.001,3.006C54.021,25.646,52.681,26.989,51.021,26.989z"/>
			<path fill="#3D85C6" d="M46.744,16.798c-1.437,0.831-3.271,0.338-4.102-1.098c-0.825-1.437-0.335-3.272,1.103-4.098
				c1.434-0.831,3.272-0.34,4.103,1.096C48.674,14.135,48.184,15.972,46.744,16.798z"/>
			<path fill="#3D85C6" d="M37.95,10.112c-0.826,1.436-2.665,1.925-4.102,1.098c-1.437-0.828-1.928-2.665-1.096-4.098
				c0.825-1.438,2.664-1.934,4.098-1.103C38.287,6.84,38.779,8.676,37.95,10.112z"/>
			<path fill="#3D85C6" d="M26.988,8.717c0,1.658-1.345,3.003-3,3.003c-1.66,0-3.002-1.345-3.002-3.003
				c0-1.66,1.342-3.003,3.002-3.003C25.644,5.714,26.988,7.057,26.988,8.717z"/>
			<path fill="#3D85C6" d="M16.798,12.992c0.829,1.434,0.338,3.27-1.099,4.102c-1.435,0.827-3.271,0.334-4.099-1.103
				c-0.832-1.435-0.337-3.271,1.1-4.098C14.133,11.064,15.969,11.557,16.798,12.992z"/>
			<path fill="#3D85C6" d="M10.113,21.784c1.435,0.829,1.925,2.666,1.097,4.104c-0.829,1.434-2.665,1.927-4.1,1.097
				c-1.437-0.826-1.93-2.662-1.099-4.099C6.841,21.449,8.677,20.959,10.113,21.784z"/>
			<path fill="#3D85C6" d="M8.716,32.746c1.66,0,3.002,1.348,3.002,3.002c0,1.66-1.342,3.002-3.002,3.002
				c-1.655,0-2.999-1.342-2.999-3.003C5.717,34.094,7.061,32.746,8.716,32.746z"/>
			<path fill="#3D85C6" d="M12.989,42.938c1.437-0.83,3.271-0.336,4.102,1.099c0.831,1.433,0.336,3.269-1.099,4.096
				c-1.435,0.834-3.272,0.339-4.099-1.1C11.064,45.601,11.557,43.767,12.989,42.938z"/>
			<path fill="#3D85C6" d="M21.784,49.625c0.829-1.436,2.668-1.929,4.102-1.099c1.438,0.829,1.928,2.665,1.103,4.102
				c-0.832,1.433-2.665,1.925-4.105,1.099C21.449,52.896,20.958,51.061,21.784,49.625z"/>
			<path fill="#3D85C6" d="M32.749,51.017c0-1.655,1.343-2.998,3-2.998c1.659,0,3.002,1.343,3.002,2.998
				c0,1.661-1.343,3.005-3.002,3.005C34.092,54.021,32.749,52.676,32.749,51.017z"/>
			<path fill="#3D85C6" d="M42.939,46.746c-0.832-1.437-0.339-3.272,1.099-4.103c1.434-0.827,3.27-0.333,4.1,1.102
				c0.829,1.436,0.339,3.269-1.104,4.099C45.601,48.672,43.767,48.181,42.939,46.746z"/>
			<path fill="#3D85C6" d="M49.625,37.949c-1.435-0.83-1.928-2.664-1.097-4.098c0.829-1.439,2.665-1.926,4.102-1.101
				c1.435,0.828,1.926,2.664,1.097,4.101C52.897,38.285,51.062,38.778,49.625,37.949z"/>
		</g>
		<g>
			<g>
				<path fill="#00AFD9" d="M47.541,29.82c0,1.305-1.064,2.366-2.37,2.366c-1.303,0-2.363-1.062-2.363-2.366
					c0-1.304,1.061-2.367,2.363-2.367C46.477,27.453,47.541,28.517,47.541,29.82z"/>
			</g>
			<g>
				<path fill="#00AFD9" d="M44.283,24.225c-0.36,0.204-0.771,0.321-1.183,0.321c-0.84,0-1.63-0.457-2.051-1.186
					c-0.653-1.13-0.266-2.584,0.865-3.236c0.36-0.207,0.767-0.315,1.183-0.315c0.843,0,1.63,0.455,2.049,1.183
					C45.802,22.118,45.413,23.569,44.283,24.225z"/>
			</g>
			<g>
				<path fill="#00AFD9" d="M39.53,17.771c-0.426,0.735-1.209,1.187-2.055,1.187c-0.413,0-0.82-0.108-1.183-0.32
					c-1.127-0.647-1.516-2.102-0.864-3.229c0.423-0.729,1.207-1.183,2.051-1.183c0.415,0,0.825,0.11,1.179,0.316
					c0.553,0.317,0.941,0.827,1.106,1.437C39.928,16.592,39.845,17.228,39.53,17.771z"/>
			</g>
			<g>
				<path fill="#00AFD9" d="M32.187,14.563c0,1.308-1.063,2.367-2.367,2.367c-1.303,0-2.366-1.06-2.366-2.367
					c0-1.305,1.062-2.365,2.366-2.365C31.123,12.197,32.187,13.258,32.187,14.563z"/>
			</g>
			<g>
				<path fill="#00AFD9" d="M24.46,17.248c-0.164,0.613-0.553,1.123-1.102,1.438c-0.36,0.21-0.769,0.318-1.184,0.318
					c-0.843,0-1.629-0.453-2.048-1.183c-0.655-1.132-0.263-2.582,0.865-3.235c0.356-0.203,0.765-0.314,1.18-0.314
					c0.846,0,1.629,0.454,2.051,1.182C24.541,16.002,24.621,16.642,24.46,17.248z"/>
				<path fill="#00AFD9" d="M18.874,21.645c0.165,0.607,0.083,1.25-0.231,1.795c-0.428,0.729-1.211,1.187-2.054,1.187
					c-0.416,0-0.822-0.11-1.183-0.317c-0.547-0.318-0.938-0.828-1.103-1.44c-0.162-0.61-0.078-1.245,0.237-1.797
					c0.421-0.728,1.208-1.183,2.051-1.183c0.412,0,0.82,0.112,1.181,0.318C18.321,20.522,18.712,21.036,18.874,21.645z"/>
			</g>
			<g>
				<path fill="#00AFD9" d="M18.688,36.379c0.649,1.128,0.265,2.577-0.868,3.234c-0.357,0.205-0.768,0.314-1.18,0.314
					c-0.843,0-1.63-0.451-2.054-1.183c-0.65-1.132-0.263-2.579,0.868-3.231c0.358-0.209,0.769-0.318,1.183-0.318
					C17.477,35.195,18.267,35.645,18.688,36.379z"/>
				<path fill="#00AFD9" d="M14.563,32.28c-1.305,0-2.368-1.061-2.368-2.366c0-1.304,1.063-2.363,2.368-2.363
					c1.304,0,2.367,1.06,2.367,2.363C16.93,31.22,15.866,32.28,14.563,32.28z"/>
				<path fill="#00AFD9" d="M24.309,44.331c-0.423,0.728-1.211,1.184-2.056,1.184c-0.41,0-0.82-0.114-1.18-0.32
					c-0.547-0.316-0.938-0.828-1.103-1.436c-0.161-0.61-0.078-1.249,0.234-1.797c0.425-0.726,1.208-1.184,2.057-1.184
					c0.41,0,0.82,0.111,1.177,0.316C24.571,41.747,24.96,43.198,24.309,44.331z"/>
			</g>
			<g>
				<path fill="#00AFD9" d="M32.284,45.173c-0.004,1.303-1.066,2.363-2.367,2.363c-1.305,0-2.366-1.061-2.366-2.363
					c0-1.306,1.062-2.365,2.366-2.365C31.218,42.808,32.28,43.867,32.284,45.173z"/>
				<path fill="#00AFD9" d="M38.745,45.146c-0.36,0.21-0.767,0.32-1.181,0.32c-0.845,0-1.628-0.452-2.053-1.183
					c-0.653-1.13-0.263-2.58,0.867-3.234c0.358-0.209,0.769-0.317,1.184-0.317c0.842,0,1.627,0.451,2.05,1.183
					C40.264,43.047,39.875,44.496,38.745,45.146z"/>
			</g>
			<g>
				<path fill="#00AFD9" d="M45.196,38.659c-0.421,0.734-1.209,1.186-2.051,1.186c-0.413,0-0.823-0.112-1.183-0.317
					c-1.131-0.651-1.519-2.102-0.868-3.232c0.421-0.729,1.211-1.184,2.053-1.184c0.413,0,0.823,0.109,1.179,0.318
					C45.459,36.083,45.85,37.53,45.196,38.659z"/>
			</g>
		</g>
		<g>
			<g>
				<path fill="#2E3487" d="M56.037,42.676c0.189,0.707,0.092,1.442-0.271,2.074c-0.488,0.842-1.398,1.369-2.375,1.369
					c-0.471,0-0.945-0.126-1.358-0.366c-0.636-0.367-1.089-0.954-1.275-1.662c-0.189-0.705-0.092-1.439,0.273-2.074
					c0.485-0.844,1.393-1.365,2.369-1.365c0.478,0,0.946,0.125,1.361,0.368C55.397,41.378,55.847,41.97,56.037,42.676z"/>
				<path fill="#2E3487" d="M59.739,29.809c0,1.507-1.23,2.734-2.736,2.734c-1.508,0-2.734-1.228-2.734-2.734
					c0-1.504,1.227-2.731,2.734-2.731C58.509,27.077,59.739,28.305,59.739,29.809z"/>
			</g>
			<g>
				<path fill="#2E3487" d="M46.027,5.633c0.187,0.704,0.092,1.441-0.275,2.075c-0.486,0.843-1.396,1.365-2.372,1.365
					c-0.475,0-0.946-0.127-1.365-0.367c-1.302-0.752-1.751-2.428-0.996-3.732c0.486-0.844,1.394-1.369,2.372-1.369
					c0.474,0,0.946,0.126,1.358,0.369C45.386,4.339,45.835,4.926,46.027,5.633z"/>
				<path fill="#2E3487" d="M54.709,18.618c-0.421,0.241-0.89,0.367-1.367,0.367c-0.977,0-1.886-0.527-2.372-1.368
					c-0.364-0.635-0.46-1.37-0.273-2.075c0.189-0.703,0.639-1.294,1.274-1.656c0.417-0.243,0.888-0.367,1.365-0.367
					c0.977,0,1.884,0.523,2.369,1.364C56.458,16.188,56.009,17.865,54.709,18.618z"/>
			</g>
			<g>
				<path fill="#2E3487" d="M32.543,2.732c0,1.509-1.225,2.735-2.734,2.735c-0.731,0-1.415-0.283-1.934-0.802
					c-0.516-0.518-0.798-1.201-0.798-1.934C27.077,1.229,28.302,0,29.809,0C31.318,0,32.543,1.229,32.543,2.732z"/>
			</g>
			<g>
				<path fill="#2E3487" d="M18.892,7.108c-0.193,0.703-0.643,1.294-1.273,1.656c-0.419,0.243-0.89,0.369-1.363,0.369
					c-0.977,0-1.888-0.521-2.369-1.367c-0.369-0.634-0.467-1.369-0.276-2.074c0.187-0.707,0.639-1.298,1.272-1.66
					c0.416-0.24,0.887-0.366,1.364-0.366c0.977,0,1.884,0.522,2.368,1.366C18.985,5.664,19.081,6.401,18.892,7.108z"/>
			</g>
			<g>
				<path fill="#2E3487" d="M8.707,17.719c-0.488,0.842-1.396,1.368-2.371,1.368c-0.476,0-0.942-0.127-1.361-0.366
					c-0.634-0.366-1.085-0.955-1.275-1.66c-0.189-0.703-0.096-1.44,0.273-2.074c0.488-0.845,1.395-1.369,2.369-1.369
					c0.476,0,0.95,0.128,1.363,0.368c0.634,0.362,1.089,0.953,1.273,1.66C9.17,16.349,9.072,17.087,8.707,17.719z"/>
				<path fill="#2E3487" d="M5.468,29.931c0,1.504-1.227,2.73-2.73,2.73H2.733c-1.51,0-2.733-1.227-2.733-2.73
					c0-1.509,1.224-2.734,2.733-2.734C4.241,27.196,5.468,28.422,5.468,29.931z"/>
			</g>
			<g>
				<path fill="#2E3487" d="M8.769,42.12c0.753,1.307,0.304,2.978-1.001,3.734c-0.417,0.237-0.892,0.367-1.365,0.367
					c-0.977,0-1.883-0.526-2.371-1.367c-0.754-1.305-0.305-2.982,1.002-3.735c0.412-0.24,0.89-0.368,1.363-0.368
					C7.37,40.751,8.28,41.275,8.769,42.12z"/>
				<path fill="#2E3487" d="M18.718,54.763c-0.485,0.843-1.393,1.368-2.365,1.368c-0.481,0-0.952-0.128-1.367-0.368
					c-1.307-0.753-1.756-2.427-1-3.734c0.486-0.841,1.393-1.369,2.367-1.369c0.479,0,0.951,0.132,1.369,0.371
					c0.63,0.364,1.083,0.953,1.272,1.656C19.181,53.392,19.087,54.131,18.718,54.763z"/>
			</g>
			<g>
				<path fill="#2E3487" d="M32.66,57.002c0,0.73-0.282,1.416-0.801,1.932c-0.517,0.521-1.2,0.804-1.931,0.804
					s-1.421-0.283-1.937-0.804c-0.513-0.516-0.798-1.201-0.798-1.932c0-0.729,0.285-1.418,0.798-1.936
					c0.519-0.514,1.206-0.797,1.937-0.797C31.436,54.27,32.66,55.498,32.66,57.002z"/>
				<path fill="#2E3487" d="M46.128,54.044c-0.193,0.705-0.643,1.295-1.274,1.66c-0.417,0.24-0.888,0.368-1.365,0.368
					c-0.977,0-1.884-0.525-2.369-1.365c-0.367-0.635-0.463-1.37-0.276-2.075c0.19-0.707,0.645-1.296,1.278-1.664
					c0.413-0.239,0.885-0.365,1.365-0.365c0.973,0,1.88,0.525,2.365,1.368C46.221,52.6,46.318,53.341,46.128,54.044z"/>
			</g>
		</g>
	</g>
	<g>
		<g>
			<path fill-rule="evenodd" clip-rule="evenodd" fill="#201D59" d="M102.161,9.482c7.048,0.003,12.109,4.428,13.134,11.462
				c0.574,3.964,0.293,7.795-1.63,11.403c-2.782,5.215-8.128,7.145-12.969,6.734c-7.158-0.601-11.438-5.6-12.325-12.195
				c-0.401-2.991-0.198-5.965,0.902-8.811C91.374,12.613,96.104,9.477,102.161,9.482z M109.134,24.421
				c-0.011-2.166-0.394-4.092-1.448-5.836c-2.775-4.595-8.878-4.566-11.62,0.043c-0.788,1.314-1.209,2.754-1.348,4.269
				c-0.264,2.721,0.125,5.32,1.705,7.617c2.73,3.984,8.157,3.987,10.92,0.025C108.656,28.658,109.105,26.524,109.134,24.421z"/>
			<path fill-rule="evenodd" clip-rule="evenodd" fill="#201D59" d="M133.407,38.365c-2.466,0-4.768,0-7.159,0
				c0-9.913,0-19.79,0-29.753c-2.832,0-5.575,0-8.384,0c0-1.825,0-3.563,0-5.342c7.971,0,15.89,0,23.868,0c0,1.748,0,3.463,0,5.27
				c-2.729,0-5.477,0-8.325,0C133.407,18.521,133.407,28.422,133.407,38.365z"/>
			<path fill-rule="evenodd" clip-rule="evenodd" fill="#201D59" d="M76.237,3.208c-0.048,0-0.087,0-0.128,0h-0.701v0.855
				c0.02,11.175,0.018,34.282,0.018,34.282c0.89,0,5.137,0,7.272,0c0-11.437,0-22.821,0-34.282c0-0.264,0-0.528,0-0.792V3.208
				H76.237z"/>
		</g>
		<g>
			<path fill-rule="evenodd" clip-rule="evenodd" fill="#201D59" d="M123.31,46.23c2.255,0,3.901,1.402,4.251,3.641
				c0.187,1.16,0.139,2.305-0.336,3.4c-0.619,1.412-1.702,2.266-3.219,2.5c-1.639,0.254-3.073-0.163-4.164-1.474
				c-0.613-0.735-0.918-1.616-1.016-2.568c-0.086-0.854-0.042-1.69,0.238-2.505C119.709,47.321,121.265,46.23,123.31,46.23z
				 M125.579,51.041c-0.015-0.64-0.117-1.236-0.434-1.777c-0.41-0.714-1.007-1.157-1.86-1.186c-0.89-0.025-1.519,0.41-1.964,1.141
				c-0.249,0.41-0.377,0.866-0.419,1.339c-0.084,0.89,0.028,1.744,0.55,2.495c0.898,1.299,2.671,1.285,3.557-0.018
				C125.425,52.428,125.562,51.74,125.579,51.041z"/>
			<path fill-rule="evenodd" clip-rule="evenodd" fill="#201D59" d="M91.231,51.022c-0.031,1.138-0.271,2.216-0.969,3.126
				c-1.158,1.503-2.728,1.941-4.522,1.577c-1.851-0.376-3.116-1.861-3.349-3.792c-0.139-1.17-0.063-2.31,0.491-3.374
				c0.753-1.455,1.989-2.187,3.594-2.318c0.856-0.072,1.69,0.056,2.458,0.459c1.22,0.644,1.864,1.709,2.134,3.018
				C91.159,50.145,91.179,50.592,91.231,51.022z M84.426,51.018c-0.003,0.727,0.134,1.302,0.436,1.83
				c0.873,1.543,2.885,1.576,3.772,0.041c0.21-0.364,0.352-0.793,0.421-1.209c0.16-0.94,0.045-1.855-0.519-2.664
				c-0.859-1.231-2.559-1.267-3.479-0.079C84.582,49.548,84.417,50.26,84.426,51.018z"/>
			<path fill-rule="evenodd" clip-rule="evenodd" fill="#201D59" d="M137.534,55.597c-0.766,0-1.504,0-2.282,0
				c0-0.093,0-0.186,0-0.281c0-1.456,0.015-2.915-0.012-4.372c-0.008-0.43-0.066-0.883-0.212-1.287
				c-0.313-0.865-0.942-1.393-1.895-1.445c-0.493-0.027-0.987-0.002-1.513-0.002c0,2.466,0,4.922,0,7.388c-0.767,0-1.506,0-2.268,0
				c0-3.03,0-6.063,0-9.115c0.061-0.006,0.134-0.017,0.204-0.017c1.258,0,2.521-0.02,3.782,0.011
				c0.531,0.015,1.074,0.083,1.586,0.226c1.408,0.396,2.145,1.432,2.455,2.799c0.1,0.449,0.139,0.921,0.147,1.379
				c0.02,1.501,0.006,2.998,0.006,4.495C137.534,55.439,137.534,55.504,137.534,55.597z"/>
			<path fill-rule="evenodd" clip-rule="evenodd" fill="#201D59" d="M103.459,46.475c0.774,0,1.515,0,2.273,0
				c0,3.039,0,6.069,0,9.117c-0.059,0.005-0.114,0.017-0.164,0.017c-1.281,0-2.559,0.024-3.837-0.016
				c-0.556-0.015-1.124-0.098-1.654-0.258c-1.312-0.388-2.026-1.358-2.344-2.64c-0.117-0.478-0.176-0.979-0.184-1.474
				c-0.022-1.513-0.009-3.027-0.009-4.54c0-0.063,0.006-0.128,0.009-0.202c0.759,0,1.504,0,2.276,0c0,0.107-0.014,3.181,0.009,4.621
				c0.008,0.424,0.075,0.863,0.199,1.269c0.302,0.958,1.094,1.508,2.099,1.521c0.358,0.005,0.718-0.011,1.074,0.009
				c0.206,0.006,0.258-0.068,0.254-0.266c-0.005-2.283-0.002-4.559-0.002-6.84C103.459,46.696,103.459,46.6,103.459,46.475z"/>
			<path fill-rule="evenodd" clip-rule="evenodd" fill="#201D59" d="M74.591,55.608c0-0.636,0-1.241,0-1.875
				c0.098-0.002,0.184-0.011,0.269-0.011c0.699-0.002,1.402,0.009,2.101-0.005c0.31-0.007,0.622-0.029,0.918-0.104
				c0.856-0.214,1.122-1.072,0.51-1.713c-0.398-0.424-0.861-0.791-1.316-1.161c-0.625-0.508-1.247-1.015-1.761-1.649
				c-0.666-0.837-0.918-1.769-0.705-2.829c0.195-0.983,0.794-1.596,1.743-1.832c0.522-0.131,1.071-0.19,1.612-0.216
				c0.723-0.036,1.449-0.01,2.174-0.01c0.053,0,0.108,0.01,0.179,0.017c0,0.619,0,1.222,0,1.864c-0.103,0-0.195,0-0.29,0
				c-0.659,0.01-1.32,0.018-1.979,0.04c-0.147,0.004-0.302,0.048-0.446,0.097c-0.697,0.241-0.974,1.001-0.544,1.597
				c0.237,0.324,0.547,0.606,0.852,0.866c0.666,0.589,1.375,1.126,2.02,1.727c0.544,0.509,0.949,1.123,1.063,1.88
				c0.095,0.628,0.051,1.251-0.203,1.844c-0.359,0.834-1.071,1.195-1.897,1.364c-0.363,0.078-0.742,0.1-1.116,0.107
				c-0.968,0.012-1.936,0.003-2.907,0.003C74.781,55.608,74.694,55.608,74.591,55.608z"/>
			<path fill-rule="evenodd" clip-rule="evenodd" fill="#201D59" d="M110.034,46.46c0.849,0,1.649,0,2.476,0
				c0,0.581,0,1.144,0,1.731c-0.817,0-1.627,0-2.43,0c-0.018,0.053-0.039,0.072-0.039,0.096c0.011,1.162,0,2.326,0.047,3.487
				c0.014,0.346,0.142,0.703,0.293,1.021c0.36,0.768,1.016,1.079,1.836,1.093c0.302,0.007,0.6,0.002,0.912,0.002
				c0,0.584,0,1.133,0,1.669c-0.614,0-1.222,0.05-1.821-0.011c-0.996-0.098-1.855-0.522-2.512-1.307
				c-0.5-0.593-0.75-1.304-0.848-2.067c-0.039-0.33-0.054-0.664-0.059-0.996c-0.004-1.432-0.009-2.866,0.005-4.297
				c0.006-0.563,0.108-1.119,0.343-1.636c0.327-0.707,0.82-1.208,1.647-1.266c0.044-0.006,0.083,0.002,0.149,0.009
				C110.034,44.801,110.034,45.612,110.034,46.46z"/>
			<path fill-rule="evenodd" clip-rule="evenodd" fill="#201D59" d="M95.292,43.203c0,4.146,0,8.268,0,12.398
				c-0.764,0-1.514,0-2.295,0c0-0.084,0-0.162,0-0.24c0-2.98-0.006-5.959,0-8.936c0-0.786,0.188-1.532,0.614-2.201
				c0.328-0.513,0.772-0.88,1.388-0.998C95.091,43.212,95.188,43.212,95.292,43.203z"/>
			<path fill-rule="evenodd" clip-rule="evenodd" fill="#201D59" d="M116.955,55.602c-0.74,0-1.465,0-2.205,0
				c0-3.041,0-6.074,0-9.126c0.736,0,1.463,0,2.205,0C116.955,49.514,116.955,52.544,116.955,55.602z"/>
			<path fill-rule="evenodd" clip-rule="evenodd" fill="#201D59" d="M114.739,45.294c0-0.621,0-1.221,0-1.851
				c0.373,0,0.736,0,1.099,0c0.366,0,0.729,0,1.117,0c0,0.619,0,1.222,0,1.851C116.226,45.294,115.492,45.294,114.739,45.294z"/>
		</g>
	</g>
</g>
<rect x="70.867" y="59.668" fill="#00ADE6" width="453.543" height="0.799"/>
</svg>
