<?xml version="1.0" encoding="UTF-8" standalone="no"?>
<!DOCTYPE svg PUBLIC "-//W3C//DTD SVG 1.1//EN" "http://www.w3.org/Graphics/SVG/1.1/DTD/svg11.dtd">
<svg width="100%" height="100%" viewBox="0 0 192 192" version="1.1" xmlns="http://www.w3.org/2000/svg" xmlns:xlink="http://www.w3.org/1999/xlink" xml:space="preserve" xmlns:serif="http://www.serif.com/" style="fill-rule:evenodd;clip-rule:evenodd;stroke-linejoin:round;stroke-miterlimit:2;">
    <g transform="matrix(3.2,0,0,3.2,0,0)">
        <g>
            <circle cx="29.867" cy="29.868" r="7.528" style="fill:rgb(32,29,89);"/>
            <g>
                <path d="M51.021,26.989C49.367,26.989 48.019,25.645 48.019,23.988C48.019,22.328 49.367,20.982 51.021,20.982C52.681,20.982 54.022,22.328 54.022,23.988C54.021,25.646 52.681,26.989 51.021,26.989Z" style="fill:rgb(61,133,198);fill-rule:nonzero;"/>
                <path d="M46.744,16.798C45.307,17.629 43.473,17.136 42.642,15.7C41.817,14.263 42.307,12.428 43.745,11.602C45.179,10.771 47.017,11.262 47.848,12.698C48.674,14.135 48.184,15.972 46.744,16.798Z" style="fill:rgb(61,133,198);fill-rule:nonzero;"/>
                <path d="M37.95,10.112C37.124,11.548 35.285,12.037 33.848,11.21C32.411,10.382 31.92,8.545 32.752,7.112C33.577,5.674 35.416,5.178 36.85,6.009C38.287,6.84 38.779,8.676 37.95,10.112Z" style="fill:rgb(61,133,198);fill-rule:nonzero;"/>
                <path d="M26.988,8.717C26.988,10.375 25.643,11.72 23.988,11.72C22.328,11.72 20.986,10.375 20.986,8.717C20.986,7.057 22.328,5.714 23.988,5.714C25.644,5.714 26.988,7.057 26.988,8.717Z" style="fill:rgb(61,133,198);fill-rule:nonzero;"/>
                <path d="M16.798,12.992C17.627,14.426 17.136,16.262 15.699,17.094C14.264,17.921 12.428,17.428 11.6,15.991C10.768,14.556 11.263,12.72 12.7,11.893C14.133,11.064 15.969,11.557 16.798,12.992Z" style="fill:rgb(61,133,198);fill-rule:nonzero;"/>
                <path d="M10.113,21.784C11.548,22.613 12.038,24.45 11.21,25.888C10.381,27.322 8.545,27.815 7.11,26.985C5.673,26.159 5.18,24.323 6.011,22.886C6.841,21.449 8.677,20.959 10.113,21.784Z" style="fill:rgb(61,133,198);fill-rule:nonzero;"/>
                <path d="M8.716,32.746C10.376,32.746 11.718,34.094 11.718,35.748C11.718,37.408 10.376,38.75 8.716,38.75C7.061,38.75 5.717,37.408 5.717,35.747C5.717,34.094 7.061,32.746 8.716,32.746Z" style="fill:rgb(61,133,198);fill-rule:nonzero;"/>
                <path d="M12.989,42.938C14.426,42.108 16.26,42.602 17.091,44.037C17.922,45.47 17.427,47.306 15.992,48.133C14.557,48.967 12.72,48.472 11.893,47.033C11.064,45.601 11.557,43.767 12.989,42.938Z" style="fill:rgb(61,133,198);fill-rule:nonzero;"/>
                <path d="M21.784,49.625C22.613,48.189 24.452,47.696 25.886,48.526C27.324,49.355 27.814,51.191 26.989,52.628C26.157,54.061 24.324,54.553 22.884,53.727C21.449,52.896 20.958,51.061 21.784,49.625Z" style="fill:rgb(61,133,198);fill-rule:nonzero;"/>
                <path d="M32.749,51.017C32.749,49.362 34.092,48.019 35.749,48.019C37.408,48.019 38.751,49.362 38.751,51.017C38.751,52.678 37.408,54.022 35.749,54.022C34.092,54.021 32.749,52.676 32.749,51.017Z" style="fill:rgb(61,133,198);fill-rule:nonzero;"/>
                <path d="M42.939,46.746C42.107,45.309 42.6,43.474 44.038,42.643C45.472,41.816 47.308,42.31 48.138,43.745C48.967,45.181 48.477,47.014 47.034,47.844C45.601,48.672 43.767,48.181 42.939,46.746Z" style="fill:rgb(61,133,198);fill-rule:nonzero;"/>
                <path d="M49.625,37.949C48.19,37.119 47.697,35.285 48.528,33.851C49.357,32.412 51.193,31.925 52.63,32.75C54.065,33.578 54.556,35.414 53.727,36.851C52.897,38.285 51.062,38.778 49.625,37.949Z" style="fill:rgb(61,133,198);fill-rule:nonzero;"/>
            </g>
            <g>
                <g>
                    <path d="M47.541,29.82C47.541,31.125 46.477,32.186 45.171,32.186C43.868,32.186 42.808,31.124 42.808,29.82C42.808,28.516 43.869,27.453 45.171,27.453C46.477,27.453 47.541,28.517 47.541,29.82Z" style="fill:rgb(0,175,217);fill-rule:nonzero;"/>
                </g>
                <g>
                    <path d="M44.283,24.225C43.923,24.429 43.512,24.546 43.1,24.546C42.26,24.546 41.47,24.089 41.049,23.36C40.396,22.23 40.783,20.776 41.914,20.124C42.274,19.917 42.681,19.809 43.097,19.809C43.94,19.809 44.727,20.264 45.146,20.992C45.802,22.118 45.413,23.569 44.283,24.225Z" style="fill:rgb(0,175,217);fill-rule:nonzero;"/>
                </g>
                <g>
                    <path d="M39.53,17.771C39.104,18.506 38.321,18.958 37.475,18.958C37.062,18.958 36.655,18.85 36.292,18.638C35.165,17.991 34.776,16.536 35.428,15.409C35.851,14.68 36.635,14.226 37.479,14.226C37.894,14.226 38.304,14.336 38.658,14.542C39.211,14.859 39.599,15.369 39.764,15.979C39.928,16.592 39.845,17.228 39.53,17.771Z" style="fill:rgb(0,175,217);fill-rule:nonzero;"/>
                </g>
                <g>
                    <path d="M32.187,14.563C32.187,15.871 31.124,16.93 29.82,16.93C28.517,16.93 27.454,15.87 27.454,14.563C27.454,13.258 28.516,12.198 29.82,12.198C31.123,12.197 32.187,13.258 32.187,14.563Z" style="fill:rgb(0,175,217);fill-rule:nonzero;"/>
                </g>
                <g>
                    <path d="M24.46,17.248C24.296,17.861 23.907,18.371 23.358,18.686C22.998,18.896 22.589,19.004 22.174,19.004C21.331,19.004 20.545,18.551 20.126,17.821C19.471,16.689 19.863,15.239 20.991,14.586C21.347,14.383 21.756,14.272 22.171,14.272C23.017,14.272 23.8,14.726 24.222,15.454C24.541,16.002 24.621,16.642 24.46,17.248Z" style="fill:rgb(0,175,217);fill-rule:nonzero;"/>
                    <path d="M18.874,21.645C19.039,22.252 18.957,22.895 18.643,23.44C18.215,24.169 17.432,24.627 16.589,24.627C16.173,24.627 15.767,24.517 15.406,24.31C14.859,23.992 14.468,23.482 14.303,22.87C14.141,22.26 14.225,21.625 14.54,21.073C14.961,20.345 15.748,19.89 16.591,19.89C17.003,19.89 17.411,20.002 17.772,20.208C18.321,20.522 18.712,21.036 18.874,21.645Z" style="fill:rgb(0,175,217);fill-rule:nonzero;"/>
                </g>
                <g>
                    <path d="M18.688,36.379C19.337,37.507 18.953,38.956 17.82,39.613C17.463,39.818 17.052,39.927 16.64,39.927C15.797,39.927 15.01,39.476 14.586,38.744C13.936,37.612 14.323,36.165 15.454,35.513C15.812,35.304 16.223,35.195 16.637,35.195C17.477,35.195 18.267,35.645 18.688,36.379Z" style="fill:rgb(0,175,217);fill-rule:nonzero;"/>
                    <path d="M14.563,32.28C13.258,32.28 12.195,31.219 12.195,29.914C12.195,28.61 13.258,27.551 14.563,27.551C15.867,27.551 16.93,28.611 16.93,29.914C16.93,31.22 15.866,32.28 14.563,32.28Z" style="fill:rgb(0,175,217);fill-rule:nonzero;"/>
                    <path d="M24.309,44.331C23.886,45.059 23.098,45.515 22.253,45.515C21.843,45.515 21.433,45.401 21.073,45.195C20.526,44.879 20.135,44.367 19.97,43.759C19.809,43.149 19.892,42.51 20.204,41.962C20.629,41.236 21.412,40.778 22.261,40.778C22.671,40.778 23.081,40.889 23.438,41.094C24.571,41.747 24.96,43.198 24.309,44.331Z" style="fill:rgb(0,175,217);fill-rule:nonzero;"/>
                </g>
                <g>
                    <path d="M32.284,45.173C32.28,46.476 31.218,47.536 29.917,47.536C28.612,47.536 27.551,46.475 27.551,45.173C27.551,43.867 28.613,42.808 29.917,42.808C31.218,42.808 32.28,43.867 32.284,45.173Z" style="fill:rgb(0,175,217);fill-rule:nonzero;"/>
                    <path d="M38.745,45.146C38.385,45.356 37.978,45.466 37.564,45.466C36.719,45.466 35.936,45.014 35.511,44.283C34.858,43.153 35.248,41.703 36.378,41.049C36.736,40.84 37.147,40.732 37.562,40.732C38.404,40.732 39.189,41.183 39.612,41.915C40.264,43.047 39.875,44.496 38.745,45.146Z" style="fill:rgb(0,175,217);fill-rule:nonzero;"/>
                </g>
                <g>
                    <path d="M45.196,38.659C44.775,39.393 43.987,39.845 43.145,39.845C42.732,39.845 42.322,39.733 41.962,39.528C40.831,38.877 40.443,37.426 41.094,36.296C41.515,35.567 42.305,35.112 43.147,35.112C43.56,35.112 43.97,35.221 44.326,35.43C45.459,36.083 45.85,37.53 45.196,38.659Z" style="fill:rgb(0,175,217);fill-rule:nonzero;"/>
                </g>
            </g>
            <g>
                <g>
                    <path d="M56.037,42.676C56.226,43.383 56.129,44.118 55.766,44.75C55.278,45.592 54.368,46.119 53.391,46.119C52.92,46.119 52.446,45.993 52.033,45.753C51.397,45.386 50.944,44.799 50.758,44.091C50.569,43.386 50.666,42.652 51.031,42.017C51.516,41.173 52.424,40.652 53.4,40.652C53.878,40.652 54.346,40.777 54.761,41.02C55.397,41.378 55.847,41.97 56.037,42.676Z" style="fill:rgb(46,52,135);fill-rule:nonzero;"/>
                    <path d="M59.739,29.809C59.739,31.316 58.509,32.543 57.003,32.543C55.495,32.543 54.269,31.315 54.269,29.809C54.269,28.305 55.496,27.078 57.003,27.078C58.509,27.077 59.739,28.305 59.739,29.809Z" style="fill:rgb(46,52,135);fill-rule:nonzero;"/>
                </g>
                <g>
                    <path d="M46.027,5.633C46.214,6.337 46.119,7.074 45.752,7.708C45.266,8.551 44.356,9.073 43.38,9.073C42.905,9.073 42.434,8.946 42.015,8.706C40.713,7.954 40.264,6.278 41.019,4.974C41.505,4.13 42.413,3.605 43.391,3.605C43.865,3.605 44.337,3.731 44.749,3.974C45.386,4.339 45.835,4.926 46.027,5.633Z" style="fill:rgb(46,52,135);fill-rule:nonzero;"/>
                    <path d="M54.709,18.618C54.288,18.859 53.819,18.985 53.342,18.985C52.365,18.985 51.456,18.458 50.97,17.617C50.606,16.982 50.51,16.247 50.697,15.542C50.886,14.839 51.336,14.248 51.971,13.886C52.388,13.643 52.859,13.519 53.336,13.519C54.313,13.519 55.22,14.042 55.705,14.883C56.458,16.188 56.009,17.865 54.709,18.618Z" style="fill:rgb(46,52,135);fill-rule:nonzero;"/>
                </g>
                <g>
                    <path d="M32.543,2.732C32.543,4.241 31.318,5.467 29.809,5.467C29.078,5.467 28.394,5.184 27.875,4.665C27.359,4.147 27.077,3.464 27.077,2.731C27.077,1.229 28.302,0 29.809,0C31.318,0 32.543,1.229 32.543,2.732Z" style="fill:rgb(46,52,135);fill-rule:nonzero;"/>
                </g>
                <g>
                    <path d="M18.892,7.108C18.699,7.811 18.249,8.402 17.619,8.764C17.2,9.007 16.729,9.133 16.256,9.133C15.279,9.133 14.368,8.612 13.887,7.766C13.518,7.132 13.42,6.397 13.611,5.692C13.798,4.985 14.25,4.394 14.883,4.032C15.299,3.792 15.77,3.666 16.247,3.666C17.224,3.666 18.131,4.188 18.615,5.032C18.985,5.664 19.081,6.401 18.892,7.108Z" style="fill:rgb(46,52,135);fill-rule:nonzero;"/>
                </g>
                <g>
                    <path d="M8.707,17.719C8.219,18.561 7.311,19.087 6.336,19.087C5.86,19.087 5.394,18.96 4.975,18.721C4.341,18.355 3.89,17.766 3.7,17.061C3.511,16.358 3.604,15.621 3.973,14.987C4.461,14.142 5.368,13.618 6.342,13.618C6.818,13.618 7.292,13.746 7.705,13.986C8.339,14.348 8.794,14.939 8.978,15.646C9.17,16.349 9.072,17.087 8.707,17.719Z" style="fill:rgb(46,52,135);fill-rule:nonzero;"/>
                    <path d="M5.468,29.931C5.468,31.435 4.241,32.661 2.738,32.661L2.733,32.661C1.223,32.661 0,31.434 0,29.931C0,28.422 1.224,27.197 2.733,27.197C4.241,27.196 5.468,28.422 5.468,29.931Z" style="fill:rgb(46,52,135);fill-rule:nonzero;"/>
                </g>
                <g>
                    <path d="M8.769,42.12C9.522,43.427 9.073,45.098 7.768,45.854C7.351,46.091 6.876,46.221 6.403,46.221C5.426,46.221 4.52,45.695 4.032,44.854C3.278,43.549 3.727,41.872 5.034,41.119C5.446,40.879 5.924,40.751 6.397,40.751C7.37,40.751 8.28,41.275 8.769,42.12Z" style="fill:rgb(46,52,135);fill-rule:nonzero;"/>
                    <path d="M18.718,54.763C18.233,55.606 17.325,56.131 16.353,56.131C15.872,56.131 15.401,56.003 14.986,55.763C13.679,55.01 13.23,53.336 13.986,52.029C14.472,51.188 15.379,50.66 16.353,50.66C16.832,50.66 17.304,50.792 17.722,51.031C18.352,51.395 18.805,51.984 18.994,52.687C19.181,53.392 19.087,54.131 18.718,54.763Z" style="fill:rgb(46,52,135);fill-rule:nonzero;"/>
                </g>
                <g>
                    <path d="M32.66,57.002C32.66,57.732 32.378,58.418 31.859,58.934C31.342,59.455 30.659,59.738 29.928,59.738C29.197,59.738 28.507,59.455 27.991,58.934C27.478,58.418 27.193,57.733 27.193,57.002C27.193,56.273 27.478,55.584 27.991,55.066C28.51,54.552 29.197,54.269 29.928,54.269C31.436,54.27 32.66,55.498 32.66,57.002Z" style="fill:rgb(46,52,135);fill-rule:nonzero;"/>
                    <path d="M46.128,54.044C45.935,54.749 45.485,55.339 44.854,55.704C44.437,55.944 43.966,56.072 43.489,56.072C42.512,56.072 41.605,55.547 41.12,54.707C40.753,54.072 40.657,53.337 40.844,52.632C41.034,51.925 41.489,51.336 42.122,50.968C42.535,50.729 43.007,50.603 43.487,50.603C44.46,50.603 45.367,51.128 45.852,51.971C46.221,52.6 46.318,53.341 46.128,54.044Z" style="fill:rgb(46,52,135);fill-rule:nonzero;"/>
                </g>
            </g>
        </g>
    </g>
</svg>
