<?xml version="1.0" encoding="UTF-8" standalone="no"?>
<!DOCTYPE svg PUBLIC "-//W3C//DTD SVG 1.1//EN" "http://www.w3.org/Graphics/SVG/1.1/DTD/svg11.dtd">
<svg width="100%" height="100%" viewBox="0 0 158 158" version="1.1" xmlns="http://www.w3.org/2000/svg" xmlns:xlink="http://www.w3.org/1999/xlink" xml:space="preserve" xmlns:serif="http://www.serif.com/" style="fill-rule:evenodd;clip-rule:evenodd;stroke-linecap:round;stroke-linejoin:round;stroke-miterlimit:1.5;">
    <g id="grupy">
    </g>
    <g id="czujnik">
    </g>
    <g id="czujnik1" serif:id="czujnik">
    </g>
    <g transform="matrix(0.761433,0,0,0.761433,-1091.58,-976.086)">
        <g id="user">
        </g>
    </g>
    <g id="contact">
    </g>
    <g transform="matrix(1.62387,0,0,1.62387,-2275.23,-1829.17)">
        <path d="M1456.97,1132.48C1452.19,1131.68 1447.31,1131.68 1442.53,1132.48L1440.98,1142.63C1436.83,1143.74 1432.92,1145.62 1429.47,1148.17L1420.57,1143.05C1416.96,1146.29 1413.92,1150.1 1411.57,1154.34L1418.54,1161.88C1416.82,1165.82 1415.85,1170.04 1415.7,1174.33L1406.14,1178.1C1406.42,1182.94 1407.51,1187.7 1409.36,1192.18L1419.6,1191.43C1421.6,1195.23 1424.3,1198.62 1427.56,1201.41L1424.55,1211.23C1428.51,1214.03 1432.91,1216.15 1437.56,1217.5L1443.36,1209.02C1447.58,1209.83 1451.91,1209.83 1456.13,1209.02L1461.93,1217.5C1466.59,1216.15 1470.98,1214.03 1474.94,1211.23L1471.93,1201.41C1475.19,1198.62 1477.89,1195.23 1479.89,1191.43L1490.14,1192.18C1491.98,1187.7 1493.07,1182.94 1493.35,1178.1L1483.79,1174.33C1483.64,1170.04 1482.68,1165.82 1480.95,1161.88L1487.93,1154.34C1485.57,1150.1 1482.53,1146.29 1478.92,1143.05L1470.02,1148.17C1466.57,1145.62 1462.66,1143.74 1458.52,1142.63L1456.97,1132.48ZM1449.75,1160.27C1458.18,1160.27 1465.03,1167.12 1465.03,1175.56C1465.03,1183.99 1458.18,1190.84 1449.75,1190.84C1441.31,1190.84 1434.46,1183.99 1434.46,1175.56C1434.46,1167.12 1441.31,1160.27 1449.75,1160.27Z" style="fill:none;stroke:rgb(0,175,217);stroke-width:5.13px;"/>
    </g>
</svg>
